<svg width="40" height="47" viewBox="0 0 40 47" fill="none" xmlns="http://www.w3.org/2000/svg">
<path d="M35.1018 45.3444C36.039 46.2817 37.5586 46.2817 38.4959 45.3444C39.4332 44.4072 39.4332 42.8876 38.4959 41.9503L35.1018 45.3444ZM28.6836 35.5321L26.9865 37.2292L35.1018 45.3444L36.7988 43.6474L38.4959 41.9503L30.3807 33.835L28.6836 35.5321Z" fill="url(#paint0_linear_1277_3874)"/>
<path d="M12.302 7.81598C6.59874 10.2439 2.6001 15.8998 2.6001 22.4896C2.6001 31.2934 9.73698 38.4302 18.5408 38.4302C27.3446 38.4302 34.4814 31.2934 34.4814 22.4896C34.4814 20.2685 34.0272 18.1535 33.2065 16.2325" stroke="#576275" stroke-width="4.8"/>
<path d="M12.302 7.81598C6.59874 10.2439 2.6001 15.8998 2.6001 22.4896C2.6001 31.2934 9.73698 38.4302 18.5408 38.4302C27.3446 38.4302 34.4814 31.2934 34.4814 22.4896C34.4814 20.2685 34.0272 18.1535 33.2065 16.2325" stroke="url(#paint1_linear_1277_3874)" stroke-width="4.8"/>
<path d="M23.3125 1.37759C23.7407 0.544141 24.9322 0.544141 25.3604 1.37759L28.0747 6.66045C28.1846 6.87432 28.3587 7.0484 28.5726 7.15829L33.8554 9.87263C34.6889 10.3009 34.6889 11.4923 33.8554 11.9205L28.5726 14.6348C28.3587 14.7447 28.1846 14.9188 28.0747 15.1327L25.3604 20.4155C24.9322 21.249 23.7407 21.249 23.3125 20.4155L20.5982 15.1327C20.4883 14.9188 20.3142 14.7447 20.1003 14.6348L14.8175 11.9205C13.984 11.4923 13.984 10.3009 14.8175 9.87263L20.1003 7.15829C20.3142 7.0484 20.4883 6.87432 20.5982 6.66045L23.3125 1.37759Z" fill="url(#paint2_linear_1277_3874)"/>
<defs>
<linearGradient id="paint0_linear_1277_3874" x1="2.65351e+10" y1="-2.65351e+10" x2="2.65351e+10" y2="-2.65351e+10" gradientUnits="userSpaceOnUse">
<stop stop-color="#3A1C71"/>
<stop offset="1" stop-color="#3A1C71"/>
</linearGradient>
<linearGradient id="paint1_linear_1277_3874" x1="50.4221" y1="23.1231" x2="19.833" y2="-8.73203" gradientUnits="userSpaceOnUse">
<stop stop-color="#3A1C71"/>
<stop offset="1" stop-color="#B655DA"/>
</linearGradient>
<linearGradient id="paint2_linear_1277_3874" x1="14.1924" y1="10.8966" x2="34.4805" y2="10.8966" gradientUnits="userSpaceOnUse">
<stop stop-color="#62B6FF"/>
<stop offset="1" stop-color="#E587FF"/>
</linearGradient>
</defs>
</svg>
