<svg width="35" height="35" viewBox="0 0 35 35" fill="none" xmlns="http://www.w3.org/2000/svg">
<path d="M15.6666 30.001C21.7418 30.001 26.6666 25.0761 26.6666 19.001C26.6666 12.9258 21.7418 8.00098 15.6666 8.00098C9.59149 8.00098 4.66663 12.9258 4.66663 19.001C4.66663 25.0761 9.59149 30.001 15.6666 30.001Z" fill="#FC4750"/>
<path d="M15.6666 28.001C20.6372 28.001 24.6666 23.9715 24.6666 19.001C24.6666 14.0304 20.6372 10.001 15.6666 10.001C10.6961 10.001 6.66663 14.0304 6.66663 19.001C6.66663 23.9715 10.6961 28.001 15.6666 28.001Z" fill="#F9F9F9"/>
<path d="M15.6666 25.001C18.9803 25.001 21.6666 22.3147 21.6666 19.001C21.6666 15.6873 18.9803 13.001 15.6666 13.001C12.3529 13.001 9.66663 15.6873 9.66663 19.001C9.66663 22.3147 12.3529 25.001 15.6666 25.001Z" fill="#FC4750"/>
<path d="M15.6666 23.001C17.8758 23.001 19.6666 21.2101 19.6666 19.001C19.6666 16.7918 17.8758 15.001 15.6666 15.001C13.4575 15.001 11.6666 16.7918 11.6666 19.001C11.6666 21.2101 13.4575 23.001 15.6666 23.001Z" fill="#F9F9F9"/>
<path d="M15.6666 21.001C16.7712 21.001 17.6666 20.1055 17.6666 19.001C17.6666 17.8964 16.7712 17.001 15.6666 17.001C14.5621 17.001 13.6666 17.8964 13.6666 19.001C13.6666 20.1055 14.5621 21.001 15.6666 21.001Z" fill="#FC4750"/>
<path d="M34.6367 6.75083C34.5907 6.56868 34.4939 6.40334 34.3576 6.2741C34.2213 6.14485 34.051 6.05701 33.8667 6.02083L29.5167 5.15083L28.6467 0.800828C28.6103 0.61639 28.5223 0.446069 28.3929 0.309668C28.2636 0.173267 28.0981 0.0763904 27.9159 0.030303C27.7336 -0.0157845 27.542 -0.00918943 27.3634 0.0493213C27.1847 0.107832 27.0264 0.215854 26.9067 0.360828L21.9067 6.36083C21.7067 6.61083 21.6267 6.93083 21.7067 7.24083L22.7067 11.2408C22.7967 11.6008 23.0767 11.8808 23.4367 11.9708L27.4367 12.9708C27.5067 12.9908 27.5867 13.0008 27.6667 13.0008C27.8967 13.0008 28.1267 12.9208 28.3067 12.7708L34.3067 7.77083C34.6067 7.52083 34.7267 7.13083 34.6367 6.75083Z" fill="#F6B545"/>
<path d="M15.6666 20.0008C15.4066 20.0008 15.1566 19.9008 14.9566 19.7108C14.8639 19.6183 14.7904 19.5084 14.7402 19.3874C14.69 19.2665 14.6642 19.1368 14.6642 19.0058C14.6642 18.8748 14.69 18.7452 14.7402 18.6242C14.7904 18.5032 14.8639 18.3933 14.9566 18.3008L29.9566 3.30081C30.1436 3.11383 30.3972 3.00879 30.6616 3.00879C30.9261 3.00879 31.1797 3.11383 31.3666 3.30081C31.5536 3.48779 31.6586 3.74138 31.6586 4.00581C31.6586 4.27024 31.5536 4.52383 31.3666 4.71081L16.3666 19.7108C16.1766 19.9008 15.9266 20.0008 15.6666 20.0008Z" fill="#7F4122"/>
</svg>
